<svg xmlns="http://www.w3.org/2000/svg" xmlns:xlink="http://www.w3.org/1999/xlink" viewBox="0 0 1379.89 1984.53"><defs><style>.cls-1{fill:none;}.cls-2{clip-path:url(#clip-path);}.cls-3{fill:#5a7b7b;}.cls-4,.cls-7{fill:#fff;}.cls-5{fill:#dfebea;}.cls-6{fill:#6c3;}.cls-7{opacity:0.8;}.cls-8{opacity:0.43;}.cls-9{clip-path:url(#clip-path-2);}.cls-10{fill:#02605b;}.cls-11{fill:#033;}.cls-12{fill:#73f71e;}</style><clipPath id="clip-path"><rect class="cls-1" x="128.5" y="42.96" width="1081" height="1921"/></clipPath><clipPath id="clip-path-2"><path class="cls-1" d="M238.36,304.6l-63,774.52,22.49,48.41-31.49,251-51.72,603.31H760.81l338.81-426.71-8.84-556.52-21.89-378.47,22.48-53.78-1.53-491.62-239.76,40c-27.06,4.51-51.73,20.91-69.22,46l-19.09,27.4c-18.5,26.56-44.39,44.24-72.92,49.81l-.44.09C670.1,241.59,654,254.38,644,273.14h0a8.57,8.57,0,0,1-6.92,4.84l-142.4,8.69a38.87,38.87,0,0,0-34,5.9l-17,12-128.93,3.58h0A66.79,66.79,0,0,0,274,300.11l-35.62,4.49"/></clipPath></defs><title>inicio</title><g id="Capa_2" data-name="Capa 2"><g id="_2" data-name="2"><g class="cls-2"><rect class="cls-3" x="1.5" y="37.46" width="1304.25" height="1942.59"/><path class="cls-4" d="M789.47,146.13s-68.38-123-186.82-15.44c0,0-42-39.45-77.95-14.35.91-2.73,8.18-25.75-3-48.41C509.43,43.07,486,41.15,484.22,41L0,39.25,3,111l55.47,52,61.46,7.17L238.36,306.39l72,17.93L575.67,302.8l143.92-25.1Z"/><path class="cls-5" d="M238.36,304.6l-63,774.52,22.49,48.41-31.49,251-51.72,603.31H760.81l338.81-426.71-8.84-556.52-21.89-378.47,22.48-53.78-1.53-491.62-239.76,40c-27.06,4.51-51.73,20.91-69.22,46l-19.09,27.4c-18.5,26.56-44.39,44.24-72.92,49.81l-.44.09C670.1,241.59,654,254.38,644,273.14h0a8.57,8.57,0,0,1-6.92,4.84l-142.4,8.69a38.87,38.87,0,0,0-34,5.9l-17,12-128.93,3.58h0A66.79,66.79,0,0,0,274,300.11l-35.62,4.49"/><polygon class="cls-6" points="4.5 110.96 53.97 159.37 121.43 168.34 238.36 304.6 236.86 327.9 179.9 1077.33 202.38 1120.36 166.4 1984.53 3.75 1972.88 4.5 110.96"/><path class="cls-6" d="M1302.75,39.25,1089.84,74.74l0,25.47-15,471.53-18,44.82,54.72,999.53c-2.53,15.55-26.56,177.39,67.46,288.66,46.51,55,100.74,72.64,127.43,78.88Z"/><path class="cls-7" d="M4.5,1088.09h0s164.9,34.06,151.41,281.48c0,0,85.45-107.57,184.39,16.14,0,0,72-121.92,188.9-17.93,0,0-3.29-118.78,64.19-177.1,48.88-42.24,113.39-50.1,168.17-18.33,12.85-17.61,55.79-72,128.93-89.64,70.6-17,126.07,10.69,144.07,20.77,0,0,20.83-173.17,178.24-139.1,0,0,18.28-73.18,91.59-57.21V1972H3Z"/><g class="cls-8"><g class="cls-9"><path class="cls-4" d="M101.85,351.18l-30,382.1c-.37,4.73,1.8,9.23,5.41,11.22L97,755.41c3.32,1.84,5.45,5.81,5.45,10.18V947.83a12.39,12.39,0,0,0,2.74,7.93l4.31,5.15c5.83,7,15.8,2.19,16-7.67l10.62-551.37c.09-4.44,2.36-8.4,5.8-10.1l24.19-11.93c6.25-3.09,13.09,2.52,12.94,10.61l-8.75,463.32c-.12,6.66,4.6,12,10.15,11.42l8.74-.87c4.57-.45,8.19-4.79,8.56-10.26l31.58-465.71c.41-6.11,4.85-10.69,10-10.28l32.3,2.58c5.1.4,9,5.63,8.73,11.73L274.07,543.1c-.2,4.68,2.06,9,5.67,10.85l19.2,9.85c3.78,1.93,6.06,6.59,5.62,11.48L294.8,685.1c-.46,5.08,2,9.89,6,11.68,5.71,2.56,11.91-2,12.6-9.22L343.91,368.7c.6-6.32,5.48-10.77,10.73-9.81l25.69,4.73c4.86.89,8.32,6.13,7.91,12l-32.84,475c-.32,4.56,1.72,8.89,5.15,10.94l15.94,9.54c3.31,2,5.33,6.08,5.17,10.49L375.57,1054c-.22,6.37,4,11.68,9.36,11.68h6.38c4.88,0,8.94-4.48,9.34-10.3l48.18-707.12c.39-5.82,4.46-10.3,9.34-10.3h68.72c5.6,0,10,5.85,9.3,12.51l-6.68,67.93c-.61,6.17,3.1,11.76,8.27,12.44l22.86,3c4.74.63,8.33,5.43,8.33,11.14V713c0,6.87,5.12,12.12,10.8,11.08l10.88-2c4.43-.82,7.75-5.26,7.94-10.62l13.1-380c.21-6,4.34-10.74,9.36-10.74h39.14c5.16,0,9.35,5,9.37,11.16l.8,275.62c0,4.81,2.6,9.07,6.41,10.59L684,621c3.93,1.57,6.54,6,6.4,11l-4,141.78c-.18,6.33,4.06,11.58,9.36,11.58h19.54c5.06,0,9.21-4.81,9.36-10.87l12.17-481.68c.13-5,3-9.31,7.08-10.53l9.39-2.82C759.31,277.69,765,283,765,290.34V570.16c0,5.85,3.77,10.72,8.65,11.17l12,1.1c4.88.45,8.65,5.32,8.65,11.17V820c0,6.19,4.19,11.21,9.37,11.21h40c5.11,0,9.27-4.89,9.37-11L862,254.85c.1-6.07,4.23-10.95,9.31-11l21.75-.16c5.19,0,9.42,5,9.42,11.2v82.64c0,6.18,4.2,11.2,9.37,11.2H927.3c5,0,9.17-4.76,9.36-10.78l6.14-193.31c.16-5.18,3.28-9.55,7.52-10.57l15.07-3.6c5.89-1.41,11.35,4.08,11.2,11.27l-6.23,300.62c-.13,6.3,4.1,11.49,9.37,11.49h22c5,0,9.13-4.71,9.36-10.69l12.77-330.94c.2-5.15,3.31-9.46,7.53-10.47l17.13-4.1c5.19-1.24,10.21,2.9,11.08,9.14l8.13,58.39c.86,6.11,5.68,10.23,10.79,9.21l10.75-2.14c4.16-.83,7.35-4.89,7.78-9.91L1104.55,75c.46-5.36,4-9.57,8.54-10l62.78-6.26c5.63-.56,10.39,4.91,10.14,11.65l-21.67,596.22c-.22,6.1,3.68,11.29,8.77,11.67l18.1,1.35c4.94.37,9.27-3.92,9.88-9.79L1219.25,496c.59-5.6,4.58-9.81,9.3-9.81h3.14c5,0,9.09-4.65,9.36-10.6l19.37-424.77c.25-5.41,3.7-9.84,8.19-10.51l35.25-5.27c5.78-.86,10.81,4.72,10.52,11.67l-8,193.24c-.26,6.39,4,11.75,9.36,11.75h7.56c5.28,0,9.52,5.22,9.36,11.53l-4,162.91c-.15,6.32,4.09,11.53,9.37,11.53h19.64c5,0,9.17-4.76,9.36-10.79l12.78-415.27C1380.09,4.69,1375-.81,1369.29.1L1048.44,50.83a7.27,7.27,0,0,0-1.12.26L913.72,92.41l-804.89,249C105,342.56,102.22,346.48,101.85,351.18Z"/></g></g><rect class="cls-1" x="1.5" y="46.42" width="1304.25" height="1911.22"/><path class="cls-4" d="M1179.62,1872.52c-4.11-5.66-8-11.22-11.87-16.7-10.32-12.42-44.29-47.81-99.53-53.45-11-1.13-68.21-4.58-114.74,37.86-52,47.39-48.64,113.63-47.26,127.73h292.23C1206.31,1911.35,1179.89,1872.9,1179.62,1872.52Z"/><path class="cls-6" d="M738,1858.58c2.27-11.79,5.09-41.46,7.68-73.18l-.15-2.82.38,0c3.06-37.72,5.76-77.64,6.8-93.36l-32.89,10.42a148.58,148.58,0,0,0,26.86,53.57l.71.91-3.67,44.08-.48.66A416.16,416.16,0,0,0,715.37,1843c-3.17,5.79-6.21,11.7-9.11,17.67l.33.93-48,106.37h44.37c.81-7.2,6.16-22.28,14.81-46.22C725.88,1899.22,735.1,1873.69,738,1858.58Z"/><path class="cls-4" d="M949.53,1835.91c43-39.2,94.72-40.74,113.75-39.77a188.78,188.78,0,0,0-97.37-82.33,434.36,434.36,0,0,1-85.56,45.29l0,.44-.88-.07q-16,6.22-32.39,11.2a433.32,433.32,0,0,1-95.68,17.41c-2.56,31-5.33,59.77-7.61,71.61-3,15.56-12.29,41.31-20.5,64-6.32,17.48-13.38,37-14.45,44.23H900.34C898.89,1952.05,896.29,1884.48,949.53,1835.91Z"/><path class="cls-4" d="M692.16,1877.49c.27-.64.57-1.27.84-1.91-4.15,4.34-8.12,8.84-11.86,13.47A217.32,217.32,0,0,0,641,1968h11.19l40.72-90.17Z"/><path class="cls-4" d="M927,1530.47c-6.29-7.36-9.44-17-7.64-26.43A31.59,31.59,0,0,1,934,1483.37a31,31,0,0,1-13.71-7c-11.92-10.67-14.09-30.34-5.51-46.75-7.08-4.45-23.26-16.68-28.28-37.87-30.34,4.44-59.82,20.29-86.15,45.09L899,1525.26Zm-69.71-72.69a12.29,12.29,0,1,1,12.29-12.29A12.29,12.29,0,0,1,857.31,1457.78Zm7.19-41.57.83-5.79c1.08.15,26.63,4.24,36.36,43.14L896,1455C887.23,1419.85,864.73,1416.24,864.5,1416.21Z"/><path class="cls-10" d="M845.57,1591.83l25.4-5.52,23.23-57.51-98.06-87.92c-33.18,32.87-61,80.08-78.82,136.51a112.17,112.17,0,0,0,52.22,26.13,108.8,108.8,0,0,0,10.77,1.6s3,.3,6,.42c5.7.25,28.39-3.93,59-13.64Z"/><path class="cls-4" d="M1070.34,1796.73c35.37,4,62.21,19.64,80,34-4.89-7-9.55-13.4-13.87-18.88-33.51-42.41-48.36-56.14-58.18-65.23a118.74,118.74,0,0,1-9.6-9.55c-13.45-15.52-60-32-93.59-25.87a194.49,194.49,0,0,1,95.28,85.58Z"/><path class="cls-11" d="M920.15,1426l2.67,1.47-1.58,2.61c-8.8,14.52-7.53,32.55,3,41.94,8.43,7.55,20.06,6.73,23.42,6.3l.85,5.79c-11.94,2-21.33,10.44-23.35,21.06s3.59,21.33,13,27.41l9,1.67c22.36-55,17.74-107,9.75-141.29l-1-4.15,4.22.59c.09,0,1.42.2,3.81.6,6.86-15.64,4.88-33.29-5.15-43.65-6.48-6.69-16.36-10.33-27.15-10A46.92,46.92,0,0,0,897.75,1353a53.5,53.5,0,0,0-6.53,31.9C894.39,1411.1,917.52,1424.52,920.15,1426Z"/><path class="cls-4" d="M860.37,1640.41a216.25,216.25,0,0,0,49.26-45.6l-36.33-3L847,1597.52c-24.47,7.76-46.13,12.61-56.56,13.67l12.2,37.61C820.94,1643.93,846.39,1638.35,860.37,1640.41Z"/><path class="cls-4" d="M928.55,1541.41l-.75-4.84-28.31-5.27-22.19,55,10.05.84,2.38-4.33a47.6,47.6,0,0,0,16.54,5.52,48.91,48.91,0,0,0,27.6-4.43c9.88-4.68,17-12.54,19.66-21.55,1.57-5.43,1.21-10.54-1-14C949,1542.58,939.09,1539.76,928.55,1541.41Z"/><path class="cls-6" d="M852,1645.78c-21.43.46-58.1,11.42-67.17,14.23l.28,13.73A247,247,0,0,0,852,1645.78Z"/><path class="cls-4" d="M712.81,1695.7l.58-.19-21.61-2.79A320.9,320.9,0,0,0,703.55,1853c2.17-4.31,4.38-8.59,6.68-12.8a422.93,422.93,0,0,1,27.8-44.12l3.35-40.17a154.83,154.83,0,0,1-27.91-57.53Z"/><path class="cls-4" d="M1190.79,1564.26c0-70.35-62.67-112.53-115.25-135.54a448.21,448.21,0,0,0-50-18.22c.17,12.63-.46,53.92-13.76,101.65-9.37,33.62-23.11,63.86-40.82,89.86a243,243,0,0,1-83.36,76.39l-6.64,74.16a428,428,0,0,0,82.95-44.44l1.66,2.41-.93-2.78c35.44-11.81,89.65,6.06,107.15,24,6.7-2,32.93-10.9,58.84-32.3C1170.55,1666.5,1190.79,1621,1190.79,1564.26Z"/><path class="cls-4" d="M883.4,1674c75.21-41.18,108.22-111.52,122.67-163.28,13.93-49.88,13.79-92.58,13.56-102a517.75,517.75,0,0,0-56.14-12.94c7.71,35.69,11.18,88.17-12.15,143.43a18.81,18.81,0,0,1,6.15,5.9c3.09,4.9,3.7,11.75,1.66,18.78-3.08,10.62-11.38,19.8-22.77,25.21a56.15,56.15,0,0,1-19,5.19,221.89,221.89,0,0,1-55.52,52.1l-.06.23-.2-.05c-38.16,25.07-77.58,34.7-102.75,38.38-.71,11-3.63,55.24-7,97.2a427.12,427.12,0,0,0,93.51-17.13q14.94-4.5,29.5-10.1l7.18-80.18Z"/><path class="cls-6" d="M970.94,1602c17.71-26,31.45-56.24,40.82-89.86,13.3-47.73,13.93-89,13.76-101.65q-3-.9-5.89-1.74c.23,9.41.37,52.11-13.56,102-14.45,51.76-47.46,122.1-122.67,163.28l-1.37.75L874.85,1755c2-.78,4.06-1.59,6.09-2.4l6.64-74.16A243,243,0,0,0,970.94,1602Z"/><path class="cls-12" d="M880.35,1759.1l-.92.37.88.07Z"/><path class="cls-12" d="M900.63,1970.65l5.8-.71c0-.46-.13-1.13-.21-2h-5.88C900.45,1969.16,900.55,1970.07,900.63,1970.65Z"/><path class="cls-6" d="M953.48,1840.23c46.53-42.44,103.74-39,114.74-37.86,55.24,5.64,89.21,41,99.53,53.45q-4.18-6-8.23-11.87c-3.14-4.55-6.22-9-9.22-13.27-17.75-14.31-44.59-30-80-34a194.49,194.49,0,0,0-95.28-85.58,63.35,63.35,0,0,0-8.25,2l-.9.61a188.78,188.78,0,0,1,97.37,82.33c-19-1-70.77.57-113.75,39.77-53.24,48.57-50.64,116.14-49.19,132h5.88C904.84,1953.86,901.53,1887.62,953.48,1840.23Z"/><path class="cls-12" d="M1173.18,1853.2l-.75-.92.67,1Z"/><path class="cls-11" d="M1198.43,1968.14l5.79.81c0-.34.08-.66.13-1h-5.9C1198.44,1968,1198.44,1968.07,1198.43,1968.14Z"/><path class="cls-11" d="M702.87,1970.62l5.82-.65a8.33,8.33,0,0,1,.11-2h-5.87A12.19,12.19,0,0,0,702.87,1970.62Z"/><polygon class="cls-11" points="651.63 1969.09 656.96 1971.5 658.56 1967.96 652.14 1967.96 651.63 1969.09"/><path class="cls-11" d="M640.73,1968.73c.07-.26.15-.52.22-.77h-3Z"/><path class="cls-11" d="M1184.38,1869.11c-3.9-5.36-7.64-10.65-11.28-15.85l-.67-1q-4.12-5.9-8.09-11.65c-8.35-12.08-16.23-23.49-23.32-32.45-33.8-42.77-48.84-56.7-58.8-65.91-2.25-2.08-4.21-3.9-6-5.72a185,185,0,0,0,58-32.39c28.51-23.49,62.5-66.83,62.5-139.9,0-32.55-12.58-62-37.39-87.65-19.68-20.32-47.06-38.23-81.38-53.25-44.2-19.34-88.86-28.87-108-32.37,7.11-17.45,4.49-37-6.87-48.75-7.63-7.87-19.13-12.16-31.55-11.74a52.79,52.79,0,0,0-38.31,18.91l-.32.46c-3.6,6.39-9.33,19.53-7.38,35.71l.06.38c-73.26,10.84-141.38,85.47-174.3,191.48l-.55,1.77,1.37,1.25a118.05,118.05,0,0,0,56.4,28.8,114.58,114.58,0,0,0,11.35,1.68c.1,0,2.11.21,4.53.36l12.67,39c-8.93,2.48-15.22,4.5-16,4.75l-2.07.67.4,19.41c-8,1.86-15.3,3.17-21.66,4.09-.86.12-1.53.22-2,.3l-2.3.38-.15,2.32s0,.28,0,.66L726,1691.51l0-.26-39-5-.51,2.72a326.62,326.62,0,0,0,13.41,171.41l-.3.64a217.53,217.53,0,0,0-23,24.4,223.14,223.14,0,0,0-41.5,81.8l2.82.78h3a217.32,217.32,0,0,1,40.19-78.91c3.74-4.63,7.71-9.13,11.86-13.47-.27.64-.57,1.27-.84,1.91l.7.3L652.14,1968h6.42l48-106.37-.33-.93c2.9-6,5.94-11.88,9.11-17.67a416.16,416.16,0,0,1,27.88-44.16l.48-.66,3.67-44.08-.71-.91a148.58,148.58,0,0,1-26.86-53.57l32.89-10.42c-1,15.72-3.74,55.64-6.8,93.36l-.38,0,.15,2.82c-2.59,31.72-5.41,61.39-7.68,73.18-2.91,15.11-12.13,40.64-20.27,63.16-8.65,23.94-14,39-14.81,46.22h5.87c1.07-7.19,8.13-26.75,14.45-44.23,8.21-22.73,17.51-48.48,20.5-64,2.28-11.84,5-40.62,7.61-71.61A433.32,433.32,0,0,0,847,1770.67q16.43-5,32.39-11.2l.92-.37a434.36,434.36,0,0,0,85.56-45.29l.9-.61a63.35,63.35,0,0,1,8.25-2c33.63-6.15,80.14,10.35,93.59,25.87a118.74,118.74,0,0,0,9.6,9.55c9.82,9.09,24.67,22.82,58.18,65.23,4.32,5.48,9,11.92,13.87,18.88,3,4.26,6.08,8.72,9.22,13.27q4.05,5.85,8.23,11.87c3.83,5.48,7.76,11,11.87,16.7.27.38,26.69,38.83,18.83,95.44h5.9C1212.16,1909.54,1185.56,1870.78,1184.38,1869.11Zm-459-138.55a154.75,154.75,0,0,0,16,25.33L738,1796.06a422.93,422.93,0,0,0-27.8,44.12c-2.3,4.21-4.51,8.49-6.68,12.8a320.9,320.9,0,0,1-11.77-160.26l21.61,2.79-.58.19.66,2.66A155,155,0,0,0,725.4,1730.56ZM897.75,1353a46.92,46.92,0,0,1,33.86-16.63c10.79-.37,20.67,3.27,27.15,10,10,10.36,12,28,5.15,43.65-2.39-.4-3.72-.59-3.81-.6l-4.22-.59,1,4.15c8,34.28,12.61,86.27-9.75,141.29l-9-1.67c-9.43-6.08-15-16.89-13-27.41s11.41-19.08,23.35-21.06l-.85-5.79c-3.36.43-15,1.25-23.42-6.3-10.49-9.39-11.76-27.42-3-41.94l1.58-2.61-2.67-1.47c-2.63-1.44-25.76-14.86-28.93-41.08A53.5,53.5,0,0,1,897.75,1353Zm54.79,195.29c2.2,3.49,2.56,8.6,1,14-2.62,9-9.78,16.87-19.66,21.55a48.91,48.91,0,0,1-27.6,4.43,47.6,47.6,0,0,1-16.54-5.52l-2.38,4.33-10.05-.84,22.19-55,28.31,5.27.75,4.84C939.09,1539.76,949,1542.58,952.54,1548.27Zm-66-156.55c5,21.19,21.2,33.42,28.28,37.87-8.58,16.41-6.41,36.08,5.51,46.75a31,31,0,0,0,13.71,7A31.59,31.59,0,0,0,919.38,1504c-1.8,9.45,1.35,19.07,7.64,26.43l-28-5.21-98.66-88.45C826.69,1412,856.17,1396.16,886.51,1391.72ZM786.33,1605.54c-3-.12-6-.42-6-.42a108.8,108.8,0,0,1-10.77-1.6,112.17,112.17,0,0,1-52.22-26.13c17.79-56.43,45.64-103.64,78.82-136.51l98.06,87.92L871,1586.31l-25.4,5.52-.26.07C814.72,1601.61,792,1605.79,786.33,1605.54Zm4.06,5.65c10.43-1.06,32.09-5.91,56.56-13.67l26.35-5.73,36.33,3a216.25,216.25,0,0,1-49.26,45.6c-14-2.06-39.43,3.52-57.78,8.39ZM852,1645.78a247,247,0,0,1-66.89,28l-.28-13.73C793.88,1657.2,830.55,1646.24,852,1645.78Zm219.79,86c-17.5-18-71.71-35.85-107.15-24l.93,2.78-1.66-2.41a428,428,0,0,1-82.95,44.44c-2,.81-4.06,1.62-6.09,2.4q-14.55,5.58-29.5,10.1a427.12,427.12,0,0,1-93.51,17.13c3.39-42,6.31-86.25,7-97.2,25.17-3.68,64.59-13.31,102.75-38.38l.2.05.06-.23a221.89,221.89,0,0,0,55.52-52.1,56.15,56.15,0,0,0,19-5.19c11.39-5.41,19.69-14.59,22.77-25.21,2-7,1.43-13.88-1.66-18.78a18.81,18.81,0,0,0-6.15-5.9c23.33-55.26,19.86-107.74,12.15-143.43a517.75,517.75,0,0,1,56.14,12.94q2.91.84,5.89,1.74a448.21,448.21,0,0,1,50,18.22c52.58,23,115.25,65.19,115.25,135.54,0,56.74-20.24,102.24-60.18,135.23C1104.7,1720.89,1078.47,1729.77,1071.77,1731.79Z"/><path class="cls-11" d="M865.33,1410.42l-.83,5.79c.23,0,22.73,3.64,31.51,38.77l5.68-1.42C892,1414.66,866.41,1410.57,865.33,1410.42Z"/><circle class="cls-11" cx="857.31" cy="1445.49" r="12.29"/><path class="cls-12" d="M926.73,1552.51s-7.74,5.43-14.26,1.76c-3.77-2.12-9.59-.49-10.76,3s6.44,9.33,7.42,10c2.66,2,13.12,9.67,22.1,5,.89-.46,5.44-3,6.46-7.51,1.23-5.51-3.77-9.56-4.23-9.91A11.79,11.79,0,0,0,926.73,1552.51Z"/></g></g></g></svg>