<svg xmlns="http://www.w3.org/2000/svg" viewBox="0 0 359.63 412.1"><defs><style>.cls-1{fill:#6c3;}.cls-2{fill:#73f71e;}</style></defs><title>Logo</title><g id="Capa_2" data-name="Capa 2"><g id="_1" data-name="1"><path class="cls-1" d="M66.73,245.3a17.32,17.32,0,0,0,26.42,5.26l18.53-15.43,21.43,1.12c18.65,27.3,37.83,55.27,48.22,70.07,24.48,34.86,62.2,15.49,62.2,15.49l23-39.59,15.85-5.43,50.85-108H26.58Z"/><path class="cls-1" d="M220.41,158.39H333.28l-50.85-108L266.58,45l-23-39.58S205.81-14,181.33,20.86c-10.39,14.8-29.57,42.76-48.22,70.06l10.09-.52Z"/><path class="cls-2" d="M359.63,158.39H220.41l-77.21-68-10.09.52-21.43,1.13L93.15,76.62a17.32,17.32,0,0,0-26.42,5.26L26.58,158.39H0v10.39H359.63Z"/><path class="cls-2" d="M26.1,411.12V387.37q0-9.64-7.7-9.64-8.43,0-8.43,9.48v23.91H.49V369.7H10v3.9a13.48,13.48,0,0,1,10.94-4.87,14.41,14.41,0,0,1,10.58,4q4.1,4.07,4.09,12.89v25.45Z"/><path class="cls-2" d="M64.44,412.1q-8.84,0-14-5.8t-5.15-15.93q0-10,5.19-15.84t13.94-5.8a17.85,17.85,0,0,1,13,4.95q5.05,4.94,5.06,14.51a47.32,47.32,0,0,1-.32,5.83H54.71a10.13,10.13,0,0,0,3,7.05,9.3,9.3,0,0,0,6.69,2.68,10.38,10.38,0,0,0,8.75-4.3l6,6.16Q73.76,412.11,64.44,412.1Zm-9.65-25.94H73.11a10,10,0,0,0-2.76-6.77,8.26,8.26,0,0,0-5.91-2.31,10,10,0,0,0-6.69,2.23C56,380.8,55,383.08,54.79,386.16Z"/><path class="cls-2" d="M115.82,411.12V407.8q-4.12,4.31-11,4.3A16,16,0,0,1,94,408.49c-2.78-2.4-4.17-5.8-4.17-10.17s1.58-7.89,4.74-10.22A18.84,18.84,0,0,1,106,384.62a19.77,19.77,0,0,1,9.8,2.19v-2.19q0-4-2-5.76c-1.33-1.18-3.36-1.78-6.12-1.78A21.12,21.12,0,0,0,95.4,381l-2.92-7.7a28.36,28.36,0,0,1,16.21-4.54,27.78,27.78,0,0,1,5.72.53,17.22,17.22,0,0,1,5.1,2.07,10.07,10.07,0,0,1,4.1,4.86,20.66,20.66,0,0,1,1.45,8.27v26.66Zm-9.24-7.37a12.36,12.36,0,0,0,9.24-4v-5.35a18.87,18.87,0,0,0-8.26-1.71,12.06,12.06,0,0,0-6.16,1.38,4.56,4.56,0,0,0-2.35,4.22,4.69,4.69,0,0,0,1.94,4A9.21,9.21,0,0,0,106.58,403.75Z"/><path class="cls-2" d="M136.41,411.12V369.7h9.49V374a8.72,8.72,0,0,1,8.51-5.27,11.54,11.54,0,0,1,7.7,2.84l-1.38,8.67a11.89,11.89,0,0,0-7-2.19,7.49,7.49,0,0,0-5.51,2.27c-1.52,1.52-2.27,4.06-2.27,7.62v23.18Z"/><path class="cls-2" d="M180.83,411.12,165.67,369.7h9.65l9.16,25.86c.64,2.16,1,3.41,1.13,3.73a24.32,24.32,0,0,1,1.14-3.73l9-25.86h9.65l-15.16,41.42Z"/><path class="cls-2" d="M230,412.1q-8.76,0-13.86-5.76t-5.11-15.89q0-10.12,5.11-15.92t13.86-5.8q8.76,0,13.9,5.8t5.15,15.92q0,10.14-5.11,15.89T230,412.1Zm0-9.08a8.35,8.35,0,0,0,7-3.33q2.55-3.31,2.55-9.24T237,381.13a8.77,8.77,0,0,0-13.9,0q-2.59,3.45-2.59,9.28c0,3.9.85,7,2.55,9.2A8.22,8.22,0,0,0,230,403Z"/><path class="cls-2" d="M259.29,411.12V369.7h9.48v41.42Z"/><path class="cls-2" d="M297.47,412.1q-8.52,0-13.5-5.76t-5-15.89q0-10.12,5-15.92t13.5-5.8q12.79,0,16.45,11.43l-9,3q-2-5.36-7.13-5.35a7.8,7.8,0,0,0-6.73,3.4q-2.43,3.41-2.43,9.24t2.39,9.12a7.5,7.5,0,0,0,6.45,3.37q5.75,0,7.53-6l9.08,2.75Q310.51,412.1,297.47,412.1Z"/><path class="cls-2" d="M341.07,412.1q-8.83,0-14-5.8t-5.15-15.93q0-10,5.19-15.84t13.94-5.8a17.83,17.83,0,0,1,13,4.95q5.07,4.94,5.07,14.51a45.27,45.27,0,0,1-.33,5.83H331.35a10.09,10.09,0,0,0,3,7.05,9.3,9.3,0,0,0,6.68,2.68,10.39,10.39,0,0,0,8.76-4.3l6,6.16Q350.39,412.11,341.07,412.1Zm-9.64-25.94h18.32a10,10,0,0,0-2.76-6.77,8.27,8.27,0,0,0-5.92-2.31,10,10,0,0,0-6.68,2.23Q331.75,381.55,331.43,386.16Z"/><path class="cls-1" d="M66.73,245.3a17.32,17.32,0,0,0,26.42,5.26l18.53-15.43,21.43,1.12c18.65,27.3,37.83,55.27,48.22,70.07,24.48,34.86,62.2,15.49,62.2,15.49l23-39.59,15.85-5.43,50.85-108H26.58Z"/><path class="cls-1" d="M220.41,158.39H333.28l-50.85-108L266.58,45l-23-39.58S205.81-14,181.33,20.86c-10.39,14.8-29.57,42.76-48.22,70.06l10.09-.52Z"/><path class="cls-2" d="M359.63,158.39H220.41l-77.21-68-10.09.52-21.43,1.13L93.15,76.62a17.32,17.32,0,0,0-26.42,5.26L26.58,158.39H0v10.39H359.63Z"/></g></g></svg>